<?xml version="1.0" encoding="UTF-8"?>
<svg version="1.1" xmlns="http://www.w3.org/2000/svg" width="272" height="235">
<path d="M0 0 C2.75 2.25 2.75 2.25 4.4581604 5.34529114 C6.48712746 7.78318934 7.61354045 8.22517429 10.78455734 8.80206871 C14.92399018 9.01110441 19.02667276 9.02366524 23.16943359 8.9753418 C24.76471185 8.97860168 26.35998656 8.98453891 27.95524597 8.99295044 C31.38763287 9.00535247 34.81928546 8.9989214 38.25162888 8.97788048 C43.68132493 8.94480384 49.11044623 8.95411985 54.54019165 8.9691925 C63.13078586 8.98807477 71.72108458 8.97904533 80.31166518 8.95787126 C95.68857055 8.92020432 111.06543379 8.9160283 126.44236052 8.94272357 C131.83712274 8.95080592 137.23152701 8.94223405 142.62624717 8.92016065 C145.98627908 8.90905611 149.3462333 8.91006546 152.70627785 8.9140358 C154.2610839 8.913251 155.81589746 8.90731188 157.37066078 8.89575768 C159.49860839 8.88058322 161.62578317 8.88395998 163.75375366 8.89164734 C164.94282507 8.88846339 166.13189648 8.88527945 167.35700035 8.88199902 C172.75038586 9.46695964 176.6080508 11.18418075 180.5625 14.875 C183.95587317 19.46998292 185.10520413 24.5090421 184.37228394 30.16467285 C183.62933051 33.52447299 182.76249969 36.82565658 181.83984375 40.140625 C181.51593155 41.36223328 181.19201935 42.58384155 180.85829163 43.84246826 C180.17057626 46.42072473 179.47573942 48.99551268 178.7668457 51.56787109 C177.86952495 54.82470445 176.99608653 58.08729797 176.1315527 61.35297012 C175.29331123 64.51378273 174.44161923 67.67093706 173.58984375 70.828125 C173.12698219 72.55533783 173.12698219 72.55533783 172.6547699 74.31744385 C165.60195403 99.89521713 165.60195403 99.89521713 154.0078125 107.171875 C147.14466422 110.44908767 140.7929859 110.52785611 133.30688477 110.47705078 C131.60823021 110.47748886 131.60823021 110.47748886 129.8752594 110.47793579 C126.14722932 110.47654695 122.41940125 110.46100646 118.69140625 110.4453125 C116.10066334 110.44158079 113.50991902 110.43873457 110.91917419 110.43673706 C104.80657335 110.42989152 98.69405538 110.41414251 92.58148569 110.39403808 C85.61895089 110.37163804 78.65641254 110.36067535 71.69385064 110.35064721 C57.37919517 110.32977501 43.06460015 110.29462474 28.75 110.25 C29.00642304 112.16864771 29.28073436 114.08490994 29.5625 116 C29.78873047 117.60101563 29.78873047 117.60101563 30.01953125 119.234375 C30.774836 122.35253152 31.53756109 123.95720617 33.75 126.25 C36.66582337 127.22194112 38.52281271 127.37687097 41.55685425 127.38130188 C42.54662262 127.38531006 43.53639099 127.38931824 44.55615234 127.39344788 C45.64089844 127.39291916 46.72564453 127.39239044 47.84326172 127.3918457 C48.98658966 127.39532013 50.1299176 127.39879456 51.30789185 127.40237427 C53.79441719 127.40973412 56.28094911 127.41507828 58.76748276 127.41866493 C62.70092885 127.42581989 66.63424943 127.44147866 70.56765747 127.46000671 C71.91481585 127.46634393 73.26197428 127.47266955 74.60913277 127.47898388 C75.62106142 127.4837326 75.62106142 127.4837326 76.65343308 127.48857725 C85.80979232 127.53063937 94.96610916 127.56363095 104.12255859 127.57592773 C110.96017306 127.5852047 117.79746234 127.61528479 124.63495255 127.65724754 C127.243253 127.66958039 129.85159795 127.67467466 132.45992661 127.67244911 C136.10627807 127.67010318 139.75172038 127.69221022 143.39794922 127.7199707 C144.47864685 127.71336929 145.55934448 127.70676788 146.67279053 127.69996643 C153.99408814 127.7916669 153.99408814 127.7916669 157.89700317 130.15812683 C161.15115924 133.83178761 161.00104361 136.39649018 160.75 141.25 C160.25 143.5 160.25 143.5 158.75 145.25 C152.26293935 148.27382139 146.75307057 148.68087757 139.65917969 148.63818359 C138.57513351 148.64344055 137.49108734 148.64869751 136.37419128 148.65411377 C132.80660394 148.667268 129.23946655 148.65858907 125.671875 148.6484375 C123.17856766 148.65046013 120.68526089 148.65337314 118.19195557 148.65713501 C112.30261421 148.66211747 106.41343442 148.65165204 100.52411675 148.6356827 C94.52304851 148.62125687 88.52225799 148.63564424 82.52119064 148.65183067 C77.37196152 148.66271378 72.2228173 148.6592008 67.07358551 148.6514473 C64.61618252 148.64945595 62.15877164 148.65186682 59.70137787 148.65888596 C56.25351302 148.66657098 52.80622103 148.654796 49.35839844 148.63818359 C48.35747665 148.64425629 47.35655487 148.65032898 46.32530212 148.65658569 C36.27163268 148.56759782 26.51589665 147.11243644 18.70111084 140.37611389 C12.23367929 133.32859215 9.70783315 124.74468008 8.109375 115.53515625 C7.90059723 114.42518784 7.69181946 113.31521942 7.47671509 112.1716156 C6.80037865 108.55489642 6.15031023 104.93398026 5.5 101.3125 C5.03274336 98.79260049 4.56347728 96.27307283 4.09228516 93.75390625 C3.12026249 88.54599704 2.15751581 83.33647367 1.20214844 78.12548828 C-0.87534168 66.80745594 -3.04099163 55.50627814 -5.21276855 44.20602417 C-5.86845025 40.78418156 -6.51731884 37.36110164 -7.16503906 33.93774414 C-7.56037304 31.86471294 -7.95587135 29.79171306 -8.3515625 27.71875 C-8.53020844 26.76737656 -8.70885437 25.81600311 -8.89291382 24.83580017 C-9.05796417 23.97668533 -9.22301453 23.1175705 -9.39306641 22.23242188 C-9.53531647 21.48279175 -9.67756653 20.73316162 -9.8241272 19.96081543 C-10.09916128 18.22905222 -10.09916128 18.22905222 -11.25 17.25 C-12.82545908 17.1411862 -14.40528915 17.094209 -15.984375 17.07421875 C-17.43457031 17.03844727 -17.43457031 17.03844727 -18.9140625 17.00195312 C-20.95552309 16.95931502 -22.99725156 16.92788639 -25.0390625 16.90820312 C-32.52158231 16.69484215 -32.52158231 16.69484215 -36.390625 14.33203125 C-39.6599122 10.67125377 -39.50090878 8.10090301 -39.25 3.25 C-38.75 1 -38.75 1 -37.25 -0.75 C-27.12265466 -6.53705448 -10.08451762 -5.43012487 0 0 Z " fill="#848482" transform="translate(59.25,25.75)"/>
<path d="M0 0 C4.34048798 3.02068221 7.47521474 7.11878867 8.82421875 12.26953125 C9.4458274 18.58921922 8.53813533 23.04851808 4.82421875 28.26953125 C0.18976424 33.02784646 -3.13744575 35.42169138 -9.86328125 35.58203125 C-16.87348904 35.51486758 -20.35633191 34.01066255 -25.42578125 29.08203125 C-28.69211529 23.83256583 -30.80509222 18.88770322 -29.67578125 12.64453125 C-28.11523095 7.29006826 -25.89944091 3.02639569 -21.12890625 -0.05078125 C-13.747097 -3.69077684 -7.32461209 -4.07242676 0 0 Z " fill="#848583" transform="translate(99.17578125,187.73046875)"/>
<path d="M0 0 C4.17374626 2.9064144 7.32089398 6.51736945 8.9296875 11.34375 C9.4375956 17.56562421 9.68323106 23.08878901 5.9296875 28.34375 C1.29633537 32.99008071 -2.83640272 35.62848147 -9.4453125 35.65625 C-15.56372671 35.52607097 -19.01228895 34.01888545 -23.7578125 30.15625 C-27.8556555 25.17238689 -29.40695999 20.69272751 -29.0078125 14.21875 C-28.19032421 8.4875418 -25.87958514 5.05779776 -21.6953125 1.09375 C-14.60198686 -3.63513376 -7.44095705 -4.05343964 0 0 Z " fill="#848483" transform="translate(211.0703125,187.65625)"/>
</svg>
