<svg width="55" height="55" viewBox="0 0 55 55" fill="none" xmlns="http://www.w3.org/2000/svg">
<g clip-path="url(#clip0_461_42)">
<path d="M27.5023 0C12.3123 0 0 12.3122 0 27.4977C0 42.6833 12.3123 55 27.5023 55C42.6923 55 55 42.6877 55 27.4977C55 12.3077 42.6878 0 27.5023 0ZM28.6525 44.563C26.813 44.563 25.4122 44.4064 24.3828 44.0797C23.2639 43.7082 23.1789 42.8489 23.1789 42.5938V42.3074C23.1789 41.6315 23.4877 41.269 23.7473 41.0811C23.9576 40.9289 24.4096 40.7095 25.0631 40.9244C25.8463 41.2153 26.9025 41.3496 28.3123 41.3496C33.1325 41.3496 34.1216 39.7742 34.1216 37.4111C34.1216 33.9962 32.2687 33.128 30.1249 32.1255C28.2452 31.2483 25.9134 30.1517 25.9134 26.992C25.9134 25.5061 26.4908 23.3892 29.2388 21.7691C30.7605 20.7486 31.5303 19.3881 31.5303 17.6292C31.5303 15.8703 31.0021 13.6415 26.4416 13.6415C23.0983 13.6415 20.8695 14.8812 20.8695 20.9411V42.6878C20.8695 43.5918 20.2385 44.2228 19.3344 44.2228H19.1419C18.2379 44.2228 17.6068 43.5918 17.6068 42.6878V21.1335C17.6068 12.2854 22.4091 10.428 26.4416 10.428C31.5168 10.428 34.7929 13.2521 34.7929 17.6292C34.7929 20.7755 32.9669 23.0714 31.4094 24.0784C30.5456 24.6468 29.0821 25.7836 29.0821 26.992C29.0821 27.7573 29.8519 28.5048 31.3736 29.2074C32.855 29.7758 33.8262 30.2771 35.1599 31.5079C36.6055 32.7207 37.3887 34.6899 37.3887 37.1694C37.3887 40.5439 35.8715 44.563 28.6525 44.563Z" fill="#FDFCFA"/>
</g>
<defs>
<clipPath id="clip0_461_42">
<rect width="55" height="55" fill="white"/>
</clipPath>
</defs>
</svg>
